<?xml version="1.0" encoding="UTF-8"?>
<!DOCTYPE svg PUBLIC "-//W3C//DTD SVG 1.1//EN" "http://www.w3.org/Graphics/SVG/1.1/DTD/svg11.dtd">
<svg xmlns="http://www.w3.org/2000/svg" version="1.1" width="500px" height="500px" style="shape-rendering:geometricPrecision; text-rendering:geometricPrecision; image-rendering:optimizeQuality; fill-rule:evenodd; clip-rule:evenodd" xmlns:xlink="http://www.w3.org/1999/xlink">
<g><path style="opacity:0.973" fill="#f3f3f4" d="M 371.5,170.5 C 371.167,169.167 370.833,169.167 370.5,170.5C 365.845,173.965 361.178,176.632 356.5,178.5C 356.167,177.167 355.833,177.167 355.5,178.5C 354.733,179.172 354.066,180.005 353.5,181C 349.475,183.601 345.808,185.101 342.5,185.5C 336.148,181.892 330.481,178.225 325.5,174.5C 325.167,173.167 324.833,173.167 324.5,174.5C 313.926,169.416 304.259,163.75 295.5,157.5C 295.167,156.167 294.833,156.167 294.5,157.5C 288.12,154.31 281.454,150.644 274.5,146.5C 273.749,145.624 273.249,144.624 273,143.5C 272.667,144.167 272.333,144.833 272,145.5C 269.312,143.636 266.812,141.636 264.5,139.5C 264.167,138.167 263.833,138.167 263.5,139.5C 258.705,135.819 254.039,133.153 249.5,131.5C 245.473,134.537 240.806,137.204 235.5,139.5C 235.167,138.167 234.833,138.167 234.5,139.5C 233.167,139.833 233.167,140.167 234.5,140.5C 207.796,156.08 180.463,171.746 152.5,187.5C 152.167,186.167 151.833,186.167 151.5,187.5C 150.167,187.833 150.167,188.167 151.5,188.5C 150.48,189.954 149.313,190.287 148,189.5C 148.463,223.393 148.296,257.56 147.5,292C 147.526,297.547 148.026,303.047 149,308.5C 150,309.833 151,311.167 152,312.5C 154.488,311.588 156.155,312.588 157,315.5C 157.333,314.833 157.667,314.167 158,313.5C 174.329,323.813 189.829,332.98 204.5,341C 203.346,341.914 203.513,342.747 205,343.5C 206.507,342.465 208.007,342.632 209.5,344C 210.211,345.255 211.044,346.421 212,347.5C 214.702,346.359 216.369,347.359 217,350.5C 217.333,349.833 217.667,349.167 218,348.5C 226.475,354.197 234.808,359.197 243,363.5C 245.944,365.591 248.61,367.258 251,368.5C 251.751,365.951 253.418,364.284 256,363.5C 256.333,363.833 256.667,364.167 257,364.5C 257.374,363.584 257.874,362.75 258.5,362C 262.75,359.626 266.916,357.126 271,354.5C 271.333,355.167 271.667,355.833 272,356.5C 272.751,353.951 274.418,352.284 277,351.5C 277.333,351.833 277.667,352.167 278,352.5C 278.615,350.884 279.615,349.551 281,348.5C 281.333,349.167 281.667,349.833 282,350.5C 286.425,345.927 291.592,342.26 297.5,339.5C 314.956,329.843 332.623,319.843 350.5,309.5C 350.833,310.833 351.167,310.833 351.5,309.5C 351.5,294.5 351.5,279.5 351.5,264.5C 322.5,264.5 293.5,264.5 264.5,264.5C 263.833,264.5 263.5,264.167 263.5,263.5C 263.5,253.5 263.5,243.5 263.5,233.5C 263.5,233.167 263.5,232.833 263.5,232.5C 303.167,232.5 342.833,232.5 382.5,232.5C 383.482,235.962 383.815,239.629 383.5,243.5C 383.5,271.5 383.5,299.5 383.5,327.5C 382.167,327.833 382.167,328.167 383.5,328.5C 378.033,332.953 372.033,336.619 365.5,339.5C 365.167,338.167 364.833,338.167 364.5,339.5C 363.167,339.833 363.167,340.167 364.5,340.5C 363.811,341.774 362.977,341.774 362,340.5C 361.626,341.416 361.126,342.25 360.5,343C 338.309,355.73 315.476,368.897 292,382.5C 291.667,382.167 291.333,381.833 291,381.5C 290.626,382.416 290.126,383.25 289.5,384C 277.147,390.842 264.814,397.675 252.5,404.5C 252.167,403.167 251.833,403.167 251.5,404.5C 250.167,404.833 250.167,405.167 251.5,405.5C 251.265,406.097 250.765,406.43 250,406.5C 248.989,405.944 248.156,405.278 247.5,404.5C 247.167,403.167 246.833,403.167 246.5,404.5C 242.02,403.178 238.187,400.845 235,397.5C 234.667,397.833 234.333,398.167 234,398.5C 230.855,396.024 227.688,393.69 224.5,391.5C 224.167,390.167 223.833,390.167 223.5,391.5C 207.266,382.256 191.432,373.256 176,364.5C 174.667,363.833 173.667,362.833 173,361.5C 172.667,361.833 172.333,362.167 172,362.5C 169.86,361.272 168.193,359.605 167,357.5C 165.16,358.833 164.66,358.666 165.5,357C 158.544,354.189 151.544,350.689 144.5,346.5C 143.749,345.624 143.249,344.624 143,343.5C 142.667,344.167 142.333,344.833 142,345.5C 140.048,343.106 137.548,341.606 134.5,341C 135.654,340.086 135.487,339.253 134,338.5C 131.909,339.5 130.243,338.833 129,336.5C 128.667,336.833 128.333,337.167 128,337.5C 125.213,334.876 122.046,332.876 118.5,331.5C 117.5,329.833 116.167,328.5 114.5,327.5C 115.167,327.167 115.833,326.833 116.5,326.5C 115.533,318.89 115.2,311.223 115.5,303.5C 115.5,260.5 115.5,217.5 115.5,174.5C 114.697,173.577 114.53,172.577 115,171.5C 122.958,165.514 131.791,160.181 141.5,155.5C 150.617,149.89 160.284,144.056 170.5,138C 172.095,138.617 173.428,138.284 174.5,137C 174.167,136.667 173.833,136.333 173.5,136C 180.158,132.649 187.492,128.482 195.5,123.5C 196.086,123.709 196.586,124.043 197,124.5C 198.193,122.395 199.86,120.728 202,119.5C 202.333,120.167 202.667,120.833 203,121.5C 203.249,120.376 203.749,119.376 204.5,118.5C 218.578,109.965 232.411,101.965 246,94.5C 246.333,94.8333 246.667,95.1667 247,95.5C 247.779,94.2718 248.779,93.2718 250,92.5C 256,96.1491 261.833,99.3157 267.5,102C 268.701,102.903 269.535,104.069 270,105.5C 270.718,104.549 271.551,104.383 272.5,105C 273.211,106.255 274.044,107.421 275,108.5C 275.333,108.167 275.667,107.833 276,107.5C 291.986,117.24 308.153,126.573 324.5,135.5C 325.251,136.376 325.751,137.376 326,138.5C 326.333,137.833 326.667,137.167 327,136.5C 329.14,137.728 330.807,139.395 332,141.5C 333.84,140.167 334.34,140.334 333.5,142C 338.555,142.955 343.055,145.455 347,149.5C 347.333,149.167 347.667,148.833 348,148.5C 353.296,152.041 358.796,155.208 364.5,158C 363.346,158.914 363.513,159.747 365,160.5C 365.414,160.043 365.914,159.709 366.5,159.5C 370.236,160.749 373.236,162.915 375.5,166C 375.027,168.305 373.693,169.805 371.5,170.5 Z"/></g>
<g><path style="opacity:0.008" fill="#fefffe" d="M 234.5,139.5 C 234.833,139.5 235.167,139.5 235.5,139.5C 235.315,140.17 234.981,140.17 234.5,139.5 Z"/></g>
<g><path style="opacity:0.008" fill="#fefffe" d="M 263.5,139.5 C 263.833,139.5 264.167,139.5 264.5,139.5C 264.315,140.17 263.981,140.17 263.5,139.5 Z"/></g>
<g><path style="opacity:0.972" fill="#f3f3f4" d="M 258.5,192.5 C 257.922,190.557 256.922,190.223 255.5,191.5C 253.417,189.545 251.417,188.212 249.5,187.5C 243.288,192.01 235.955,196.343 227.5,200.5C 227.167,199.167 226.833,199.167 226.5,200.5C 224.188,202.636 221.688,204.636 219,206.5C 217.913,204.068 217.413,204.402 217.5,207.5C 215.61,207.297 214.11,207.963 213,209.5C 212.667,209.167 212.333,208.833 212,208.5C 208.477,212.021 204.31,214.688 199.5,216.5C 198.833,216.5 198.167,216.5 197.5,216.5C 196.833,216.5 196.5,216.833 196.5,217.5C 195.833,217.5 195.5,217.833 195.5,218.5C 195.169,239.673 195.503,260.673 196.5,281.5C 196.833,282.833 197.167,282.833 197.5,281.5C 200.306,282.321 202.473,283.988 204,286.5C 206.33,285.844 207.997,286.844 209,289.5C 211.09,288.209 212.424,288.876 213,291.5C 213.333,291.167 213.667,290.833 214,290.5C 222.722,295.916 231.222,300.749 239.5,305C 242.462,307.057 245.295,309.224 248,311.5C 260.369,304.485 272.702,297.485 285,290.5C 285.333,290.833 285.667,291.167 286,291.5C 286.278,290.584 286.778,289.918 287.5,289.5C 287.833,290.833 288.167,290.833 288.5,289.5C 303.785,288.531 319.119,288.198 334.5,288.5C 335.167,288.5 335.5,288.833 335.5,289.5C 335.5,292.5 335.5,295.5 335.5,298.5C 335.5,298.833 335.5,299.167 335.5,299.5C 334.833,299.5 334.5,299.833 334.5,300.5C 328.603,305.263 321.77,309.596 314,313.5C 306.365,317.819 298.699,322.153 291,326.5C 290.667,326.167 290.333,325.833 290,325.5C 285.649,329.936 280.482,333.269 274.5,335.5C 274.167,334.167 273.833,334.167 273.5,335.5C 266.84,340.613 258.84,345.613 249.5,350.5C 239.401,344.253 228.734,338.086 217.5,332C 218.833,331.333 218.833,330.667 217.5,330C 209.174,327.496 201.507,323.329 194.5,317.5C 194.167,316.167 193.833,316.167 193.5,317.5C 190.763,317.141 188.763,315.807 187.5,313.5C 187.167,312.167 186.833,312.167 186.5,313.5C 184.248,313.084 182.748,311.751 182,309.5C 181.667,310.167 181.333,310.833 181,311.5C 174.662,307.639 168.829,303.805 163.5,300C 164.797,266.117 164.797,232.45 163.5,199C 169.281,195.03 175.114,191.197 181,187.5C 181.333,188.167 181.667,188.833 182,189.5C 183.135,186.293 185.135,184.959 188,185.5C 188.374,184.584 188.874,183.75 189.5,183C 201.032,176.738 212.365,170.238 223.5,163.5C 224.086,163.709 224.586,164.043 225,164.5C 227.439,161.941 230.105,159.608 233,157.5C 233.333,158.167 233.667,158.833 234,159.5C 234.631,156.359 236.298,155.359 239,156.5C 240.487,155.747 240.654,154.914 239.5,154C 243.426,152.227 246.759,150.393 249.5,148.5C 271.135,160.986 292.801,173.486 314.5,186C 315.701,186.903 316.535,188.069 317,189.5C 317.333,188.833 317.667,188.167 318,187.5C 320.644,189.31 323.144,191.31 325.5,193.5C 324.695,195.472 323.361,196.972 321.5,198C 314.567,201.6 308.233,205.266 302.5,209C 294.647,214.164 287.814,212.997 282,205.5C 281.667,205.833 281.333,206.167 281,206.5C 273.593,201.574 266.093,196.908 258.5,192.5 Z"/></g>
<g><path style="opacity:0.004" fill="#fefffe" d="M 141.5,154.5 C 142.833,155.167 142.833,155.167 141.5,154.5 Z"/></g>
<g><path style="opacity:0.004" fill="#fefffe" d="M 294.5,157.5 C 294.833,157.5 295.167,157.5 295.5,157.5C 295.315,158.17 294.981,158.17 294.5,157.5 Z"/></g>
<g><path style="opacity:0.004" fill="#fefffe" d="M 370.5,170.5 C 370.833,170.5 371.167,170.5 371.5,170.5C 371.315,171.17 370.981,171.17 370.5,170.5 Z"/></g>
<g><path style="opacity:0.004" fill="#fefffe" d="M 115.5,174.5 C 115.5,217.5 115.5,260.5 115.5,303.5C 114.167,282.344 113.5,260.844 113.5,239C 113.5,217.156 114.167,195.656 115.5,174.5 Z"/></g>
<g><path style="opacity:0.008" fill="#fefffe" d="M 324.5,174.5 C 324.833,174.5 325.167,174.5 325.5,174.5C 325.315,175.17 324.981,175.17 324.5,174.5 Z"/></g>
<g><path style="opacity:0.004" fill="#fefffe" d="M 355.5,178.5 C 355.833,178.5 356.167,178.5 356.5,178.5C 356.315,179.17 355.981,179.17 355.5,178.5 Z"/></g>
<g><path style="opacity:0.008" fill="#fefffe" d="M 151.5,187.5 C 151.833,187.5 152.167,187.5 152.5,187.5C 152.315,188.17 151.981,188.17 151.5,187.5 Z"/></g>
<g><path style="opacity:0.004" fill="#fefffe" d="M 258.5,192.5 C 257.833,193.167 257.833,193.167 258.5,192.5 Z"/></g>
<g><path style="opacity:0.004" fill="#fefffe" d="M 226.5,200.5 C 226.833,200.5 227.167,200.5 227.5,200.5C 227.315,201.17 226.981,201.17 226.5,200.5 Z"/></g>
<g><path style="opacity:0.008" fill="#fefffe" d="M 197.5,216.5 C 198.167,216.5 198.833,216.5 199.5,216.5C 198.878,217.627 198.045,218.627 197,219.5C 196.179,240.24 196.346,260.906 197.5,281.5C 197.167,281.5 196.833,281.5 196.5,281.5C 195.503,260.673 195.169,239.673 195.5,218.5C 196.167,218.5 196.5,218.167 196.5,217.5C 197.167,217.5 197.5,217.167 197.5,216.5 Z"/></g>
<g><path style="opacity:0.006" fill="#fefffe" d="M 382.5,232.5 C 342.833,232.5 303.167,232.5 263.5,232.5C 263.611,231.883 263.944,231.383 264.5,231C 284.167,230.833 303.833,230.667 323.5,230.5C 343.512,230.5 363.178,231.167 382.5,232.5 Z"/></g>
<g><path style="opacity:0.004" fill="#fefffe" d="M 263.5,233.5 C 263.5,243.5 263.5,253.5 263.5,263.5C 262.172,258.881 261.506,253.881 261.5,248.5C 261.506,243.119 262.172,238.119 263.5,233.5 Z"/></g>
<g><path style="opacity:0.004" fill="#fefffe" d="M 383.5,243.5 C 384.833,256.983 385.499,270.817 385.5,285C 385.333,298.833 385.167,312.667 385,326.5C 384.722,327.416 384.222,328.082 383.5,328.5C 383.5,328.167 383.5,327.833 383.5,327.5C 383.5,299.5 383.5,271.5 383.5,243.5 Z"/></g>
<g><path style="opacity:0.005" fill="#fefffe" d="M 264.5,264.5 C 293.5,264.5 322.5,264.5 351.5,264.5C 351.5,279.5 351.5,294.5 351.5,309.5C 351.167,309.5 350.833,309.5 350.5,309.5C 350.5,294.833 350.5,280.167 350.5,265.5C 321.662,265.831 292.995,265.498 264.5,264.5 Z"/></g>
<g><path style="opacity:0.004" fill="#fefffe" d="M 334.5,288.5 C 319.119,288.198 303.785,288.531 288.5,289.5C 288.167,289.5 287.833,289.5 287.5,289.5C 287.918,288.778 288.584,288.278 289.5,288C 304.672,287.172 319.672,287.339 334.5,288.5 Z"/></g>
<g><path style="opacity:0.004" fill="#fefffe" d="M 335.5,289.5 C 336.765,290.514 337.431,292.014 337.5,294C 337.431,295.986 336.765,297.486 335.5,298.5C 335.5,295.5 335.5,292.5 335.5,289.5 Z"/></g>
<g><path style="opacity:0.004" fill="#fefffe" d="M 335.5,299.5 C 336.833,300.167 336.833,300.167 335.5,299.5 Z"/></g>
<g><path style="opacity:0.004" fill="#fefffe" d="M 334.5,300.5 C 334.833,300.5 335.167,300.5 335.5,300.5C 335.315,301.17 334.981,301.17 334.5,300.5 Z"/></g>
<g><path style="opacity:0.004" fill="#fefffe" d="M 186.5,313.5 C 186.833,313.5 187.167,313.5 187.5,313.5C 187.315,314.17 186.981,314.17 186.5,313.5 Z"/></g>
<g><path style="opacity:0.008" fill="#fefffe" d="M 193.5,317.5 C 193.833,317.5 194.167,317.5 194.5,317.5C 194.315,318.17 193.981,318.17 193.5,317.5 Z"/></g>
<g><path style="opacity:0.008" fill="#fefffe" d="M 273.5,335.5 C 273.833,335.5 274.167,335.5 274.5,335.5C 274.315,336.17 273.981,336.17 273.5,335.5 Z"/></g>
<g><path style="opacity:0.008" fill="#fefffe" d="M 364.5,339.5 C 364.833,339.5 365.167,339.5 365.5,339.5C 365.315,340.17 364.981,340.17 364.5,339.5 Z"/></g>
<g><path style="opacity:0.004" fill="#fefffe" d="M 223.5,391.5 C 223.833,391.5 224.167,391.5 224.5,391.5C 224.315,392.17 223.981,392.17 223.5,391.5 Z"/></g>
<g><path style="opacity:0.008" fill="#fefffe" d="M 246.5,404.5 C 246.833,404.5 247.167,404.5 247.5,404.5C 247.315,405.17 246.981,405.17 246.5,404.5 Z"/></g>
<g><path style="opacity:0.008" fill="#fefffe" d="M 251.5,404.5 C 251.833,404.5 252.167,404.5 252.5,404.5C 252.315,405.17 251.981,405.17 251.5,404.5 Z"/></g>
</svg>
